<mxfile host="app.diagrams.net" modified="2023-11-08T11:46:54.628Z" agent="Mozilla/5.0 (Windows NT 10.0; Win64; x64) AppleWebKit/537.36 (KHTML, like Gecko) Chrome/119.0.0.0 Safari/537.36 Edg/119.0.0.0" version="22.0.8" etag="YMWxopy8B9YnaOzyDswj" type="github">
  <diagram name="第 1 页" id="o95YDa0_Lt3zoPjD2e6J">
    <mxGraphModel>
      <root>
        <mxCell id="0" />
        <mxCell id="1" parent="0" />
      </root>
    </mxGraphModel>
  </diagram>
</mxfile>
